<?xml version="1.0" encoding="utf-8"?>
<!-- Generator: Adobe Illustrator 21.0.0, SVG Export Plug-In . SVG Version: 6.00 Build 0)  -->
<svg version="1.1" id="Capa_1" xmlns="http://www.w3.org/2000/svg" xmlns:xlink="http://www.w3.org/1999/xlink" x="0px" y="0px"
	 viewBox="0 0 55.8 54.8" style="enable-background:new 0 0 55.8 54.8;" xml:space="preserve">
<g>
	<path d="M49.1,34.6v7.1c0,4.7-3.8,8.5-8.5,8.5H15.2c-4.7,0-8.5-3.8-8.5-8.5v-7.1H3.9v-8.5h2.8v-1.4c0-4.7,3.8-8.5,8.5-8.5h11.3
		v-1.8c-2.5-0.9-4.2-3.2-4.2-6c0-3.5,2.8-6.4,6.4-6.4c3.5,0,6.4,2.8,6.4,6.4c0,2.8-1.8,5.1-4.2,6v1.8h9.9c4.7,0,8.5,3.8,8.5,8.5v1.4
		h2.6v8.5H49.1z M31.5,8.5c0-1.6-1.3-2.9-2.9-2.9c-1.6,0-2.9,1.3-2.9,2.9s1.3,2.9,2.9,2.9C30.2,11.3,31.5,10,31.5,8.5z M44.8,24.7
		c0-2.3-1.9-4.2-4.2-4.2h-9.9h-4.2H15.2c-2.3,0-4.2,1.9-4.2,4.2v16.9c0,2.3,1.9,4.2,4.2,4.2h25.4c2.3,0,4.2-1.9,4.2-4.2
		C44.8,41.6,44.8,24.7,44.8,24.7z M35,31.7c-1.6,0-2.8-1.3-2.8-2.8c0-1.6,1.3-2.8,2.8-2.8s2.8,1.3,2.8,2.8
		C37.8,30.5,36.5,31.7,35,31.7z M36.4,38.1c0,1.2-0.9,2.1-2.1,2.1H21.5c-1.2,0-2.1-0.9-2.1-2.1s0.9-2.1,2.1-2.1h12.7
		C35.4,36,36.4,36.9,36.4,38.1z M20.8,31.7c-1.6,0-2.8-1.3-2.8-2.8c0-1.6,1.3-2.8,2.8-2.8s2.8,1.3,2.8,2.8
		C23.7,30.5,22.4,31.7,20.8,31.7z"/>
</g>
</svg>
